<svg width="182" height="69" viewBox="0 0 182 69" fill="none" xmlns="http://www.w3.org/2000/svg">
<path d="M19.4697 64H11.3163L29.6366 13.0909H38.5109L56.8312 64H48.6778L34.2851 22.3381H33.8873L19.4697 64ZM20.8369 44.0639H47.2858V50.527H20.8369V44.0639Z" fill="white"/>
<path d="M17.5 58L14.5 54L8 64.5L12 66.5H21.5L22.5 62L17.5 58Z" fill="#F16F26"/>
<path d="M32.5 68L51 17H53L71.5 68H32.5Z" fill="#F16F26"/>
<path d="M35.8935 64H27.7401L46.0604 13.0909H54.9347L73.255 64H65.1016L50.7088 22.3381H50.3111L35.8935 64ZM37.2607 44.0639H63.7095V50.527H37.2607V44.0639Z" fill="white"/>
<circle cx="42.5" cy="34.5" r="34" stroke="white"/>
<path d="M98.072 32L97.4 28.448H92.344L91.672 32H87.32L91.64 9.6H98.264L102.36 32H98.072ZM94.808 13.76L93.56 21.216L92.856 25.024H96.856L96.12 21.216L94.872 13.76H94.808ZM111.168 15.648H113.44L114.24 16.768C114.688 16.3627 115.114 16.0747 115.52 15.904C115.946 15.7333 116.576 15.648 117.408 15.648H120.96C121.898 16.8427 122.538 18.0373 122.88 19.232C123.221 20.4267 123.392 21.92 123.392 23.712V32H119.135V23.392C119.135 21.4293 118.837 19.968 118.24 19.008H115.168C115.637 19.9253 115.872 21.1733 115.872 22.752V32H111.616V23.392C111.616 21.3653 111.338 19.904 110.784 19.008H108.32V32H104.064V15.648H107.391L107.968 16.8C108.437 16.3733 108.874 16.0747 109.28 15.904C109.706 15.7333 110.336 15.648 111.168 15.648ZM133.713 24.608H130.289C129.841 25.1627 129.617 25.856 129.617 26.688C129.617 27.52 129.852 28.1707 130.321 28.64H133.713V24.608ZM126.833 15.648H134.769C136.049 16.416 136.892 17.3013 137.297 18.304C137.702 19.2853 137.905 20.6293 137.905 22.336V27.136C137.905 28.9067 137.948 30.528 138.033 32H134.385L133.809 30.848C132.977 31.616 131.804 32 130.289 32H128.273C126.46 30.8053 125.553 29.088 125.553 26.848C125.553 24.5867 126.481 22.8053 128.337 21.504H131.345C132.177 21.504 132.956 21.76 133.681 22.272V20.672C133.681 19.84 133.318 19.2853 132.593 19.008H126.833V15.648ZM151.221 18.112L145.045 28.64H151.157V32H139.893V29.536L146.165 19.008H140.277V15.648H151.221V18.112ZM162.635 32H155.659C153.526 30.016 152.459 27.3067 152.459 23.872C152.459 22.144 152.694 20.64 153.163 19.36C153.654 18.08 154.422 16.8427 155.467 15.648H162.955C164.065 16.928 164.822 18.176 165.227 19.392C165.633 20.5867 165.835 22.08 165.835 23.872C165.835 27.3067 164.769 30.016 162.635 32ZM157.931 28.64H160.363C161.131 27.1467 161.515 25.4507 161.515 23.552C161.515 21.6533 161.121 20.1387 160.331 19.008H157.931C157.163 20.096 156.779 21.6427 156.779 23.648C156.779 25.632 157.163 27.296 157.931 28.64ZM175.23 15.648H178.622C179.561 16.8427 180.201 18.0373 180.542 19.232C180.883 20.4267 181.054 21.92 181.054 23.712V32H176.798V23.392C176.798 21.3653 176.521 19.904 175.966 19.008H172.382V32H168.126V15.648H171.454L172.03 16.8C172.499 16.3733 172.937 16.0747 173.342 15.904C173.769 15.7333 174.398 15.648 175.23 15.648ZM98.072 59L97.4 55.448H92.344L91.672 59H87.32L91.64 36.6H98.264L102.36 59H98.072ZM94.808 40.76L93.56 48.216L92.856 52.024H96.856L96.12 48.216L94.872 40.76H94.808ZM105.664 42.648H112.736V46.008H107.744L110.784 50.52C112.149 52.4613 112.906 53.7947 113.056 54.52C113.141 54.8613 113.184 55.2133 113.184 55.576C113.184 57.0907 112.618 58.232 111.488 59H103.328V55.64H109.184L105.76 50.616C105.61 50.3813 105.376 50.0507 105.056 49.624C104.757 49.1973 104.522 48.856 104.352 48.6C104.181 48.3227 104.064 48.12 104 47.992C103.936 47.864 103.85 47.704 103.743 47.512C103.637 47.2987 103.562 47.1173 103.52 46.968C103.434 46.5627 103.392 46.232 103.392 45.976C103.392 44.4187 104.149 43.3093 105.664 42.648ZM116.851 42.648H123.923V46.008H118.931L121.971 50.52C123.336 52.4613 124.094 53.7947 124.243 54.52C124.328 54.8613 124.371 55.2133 124.371 55.576C124.371 57.0907 123.806 58.232 122.675 59H114.515V55.64H120.371L116.947 50.616C116.798 50.3813 116.563 50.0507 116.243 49.624C115.944 49.1973 115.71 48.856 115.539 48.6C115.368 48.3227 115.251 48.12 115.187 47.992C115.123 47.864 115.038 47.704 114.931 47.512C114.824 47.2987 114.75 47.1173 114.707 46.968C114.622 46.5627 114.579 46.232 114.579 45.976C114.579 44.4187 115.336 43.3093 116.851 42.648ZM126.439 59V42.648H130.663V59H126.439ZM126.439 36.6H130.663V40.92H126.439V36.6ZM135.007 42.648H142.079V46.008H137.087L140.127 50.52C141.493 52.4613 142.25 53.7947 142.399 54.52C142.485 54.8613 142.527 55.2133 142.527 55.576C142.527 57.0907 141.962 58.232 140.831 59H132.671V55.64H138.527L135.103 50.616C134.954 50.3813 134.719 50.0507 134.399 49.624C134.101 49.1973 133.866 48.856 133.695 48.6C133.525 48.3227 133.407 48.12 133.343 47.992C133.279 47.864 133.194 47.704 133.087 47.512C132.981 47.2987 132.906 47.1173 132.863 46.968C132.778 46.5627 132.735 46.232 132.735 45.976C132.735 44.4187 133.493 43.3093 135.007 42.648ZM145.555 51.864V46.008H143.347V42.648H145.555V38.2H149.811V42.648H152.435V46.008H149.811V52.888C149.811 54.1893 150.035 55.1067 150.483 55.64H152.435V59H147.891C146.76 57.9547 146.077 56.824 145.843 55.608C145.651 54.584 145.555 53.336 145.555 51.864Z" fill="white"/>
</svg>
